Coordinates
version=1
nRows=15
nColumns=46
inDegrees=yes

Units are S.I. units (second, meters, Newtons, ...)
Angles are in degrees.

endheader
time	pelvis_tilt	pelvis_list	pelvis_rotation	pelvis_tx	pelvis_ty	pelvis_tz	bb_angle	bb_tx	bb_ty	bb_tz	hip_flexion_r	hip_adduction_r	hip_rotation_r	knee_angle_r	knee_angle_r_beta	ankle_angle_r	subtalar_angle_r	mtp_angle_r	crank_angle_r	hip_flexion_l	hip_adduction_l	hip_rotation_l	knee_angle_l	knee_angle_l_beta	ankle_angle_l	subtalar_angle_l	mtp_angle_l	crank_angle_l	lumbar_extension	lumbar_bending	lumbar_rotation	arm_flex_r	arm_add_r	arm_rot_r	elbow_flex_r	pro_sup_r	wrist_flex_r	wrist_dev_r	arm_flex_l	arm_add_l	arm_rot_l	elbow_flex_l	pro_sup_l	wrist_flex_l	wrist_dev_l
      0.00000000	    -11.66551836	     -2.15481550	      0.32129693	      0.07037448	      1.10064030	     -0.27729076	      0.00000000	      0.50000000	      0.00000000	      0.25000000	     76.33131954	     -1.76673108	      2.36613079	     85.53076590	      1.49279348	      8.93324064	     -9.69149439	      0.00000000	      0.00000000	     45.15260180	     -8.46610434	     -0.49406798	     72.58354398	      1.26682183	     11.43654975	     -4.33358787	      0.00000000	      0.00000000	    -50.67278087	      0.79258493	      4.17876443	     89.20685373	    -13.98166864	     46.83452768	     24.10150997	     29.31413180	      0.00000000	      0.00000000	     88.64776890	     -9.00673783	     44.98394650	     25.55300224	     31.16015114	      0.00000000	      0.00000000
      0.00500000	    -11.69150511	     -2.16530430	      0.32015687	      0.07029704	      1.10062147	     -0.27732223	      0.00000000	      0.50000000	      0.00000000	      0.25000000	     76.43777707	     -1.79868995	      2.32834148	     85.67111482	      1.49524303	      9.02964414	     -9.63844844	      0.00000000	      0.00000000	     45.10154074	     -8.49735016	     -0.53969356	     72.38915706	      1.26342913	     11.39509079	     -4.23009472	      0.00000000	      0.00000000	    -50.65712832	      0.81327100	      4.21071287	     89.21300606	    -14.26383445	     47.36869669	     24.19654800	     29.96331994	      0.00000000	      0.00000000	     88.67460156	     -9.15808392	     45.53259746	     25.50571918	     31.94697095	      0.00000000	      0.00000000
      0.01000000	    -11.69601472	     -2.17768662	      0.31046418	      0.07025106	      1.10064451	     -0.27733034	      0.00000000	      0.50000000	      0.00000000	      0.25000000	     76.50743012	     -1.81024115	      2.30109213	     85.80360363	      1.49755539	      9.10772468	     -9.59334730	      0.00000000	      0.00000000	     45.02516617	     -8.52635963	     -0.59005474	     72.20524031	      1.26021918	     11.39856981	     -4.19807913	      0.00000000	      0.00000000	    -50.65856948	      0.81993190	      4.22398360	     89.21013711	    -14.08851385	     46.66339691	     24.04555439	     30.05577074	      0.00000000	      0.00000000	     88.66397020	     -8.96340203	     44.84256783	     25.35843642	     32.03422227	      0.00000000	      0.00000000
      0.01500000	    -11.56719220	     -2.20775317	      0.29039959	      0.07021289	      1.10091882	     -0.27740564	      0.00000000	      0.50000000	      0.00000000	      0.25000000	     76.40784985	     -1.80991607	      2.25143625	     85.92129859	      1.49960956	      9.19854494	     -9.60397405	      0.00000000	      0.00000000	     44.77794311	     -8.56068419	     -0.60099752	     72.00249614	      1.25668063	     11.48530530	     -4.03554345	      0.00000000	      0.00000000	    -50.85386917	      0.82580503	      4.31220930	     89.20675394	    -14.06650330	     45.82102524	     24.19578549	     30.27136718	      0.00000000	      0.00000000	     88.60562080	     -8.88871987	     44.00002144	     25.75285775	     32.25179259	      0.00000000	      0.00000000
      0.02000000	    -11.75545047	     -2.20782378	      0.31052138	      0.07008165	      1.10064611	     -0.27750192	      0.00000000	      0.50000000	      0.00000000	      0.25000000	     76.71023463	     -1.87570297	      2.25476269	     86.10846679	      1.50287626	      9.33067599	     -9.40314360	      0.00000000	      0.00000000	     44.94550025	     -8.51526402	     -0.57911814	     71.87356010	      1.25443027	     11.36164484	     -4.20120154	      0.00000000	      0.00000000	    -50.59335798	      0.85597055	      4.26378610	     89.21085951	    -14.33324792	     47.52550187	     24.41607161	     29.02715260	      0.00000000	      0.00000000	     88.65647411	     -9.11929953	     45.67911298	     25.67008190	     30.96881588	      0.00000000	      0.00000000
      0.02500000	    -11.65492438	     -2.23983027	      0.28428921	      0.07002197	      1.10091259	     -0.27756079	      0.00000000	      0.50000000	      0.00000000	      0.25000000	     76.64793985	     -1.87844376	      2.18165071	     86.20100085	      1.50449128	      9.41202119	     -9.43709676	      0.00000000	      0.00000000	     44.74831733	     -8.56970377	     -0.60361525	     71.68644968	      1.25116458	     11.48840868	     -4.01150426	      0.00000000	      0.00000000	    -50.76920665	      0.81650968	      4.28815963	     89.20194336	    -14.22935623	     46.19441053	     24.36959550	     29.68707763	      0.00000000	      0.00000000	     88.61637442	     -8.86527564	     44.30413640	     25.71423803	     31.52925233	      0.00000000	      0.00000000
      0.03000000	    -11.78634013	     -2.28267613	      0.35596218	      0.06992331	      1.10060718	     -0.27773439	      0.00000000	      0.50000000	      0.00000000	      0.25000000	     76.88238037	     -1.97731959	      2.13312325	     86.38889269	      1.50777061	      9.44550871	     -9.27992946	      0.00000000	      0.00000000	     44.88300517	     -8.54779417	     -0.54936899	     71.57015451	      1.24913484	     11.30908763	     -4.13891851	      0.00000000	      0.00000000	    -50.57560895	      0.96303867	      4.28110471	     89.21502323	    -14.35161863	     47.47654181	     24.31128025	     30.23412409	      0.00000000	      0.00000000	     88.67193567	     -9.09687188	     45.53855332	     25.47471899	     32.21029504	      0.00000000	      0.00000000
      0.03500000	    -11.77574882	     -2.30557756	      0.35147841	      0.06987648	      1.10075675	     -0.27775222	      0.00000000	      0.50000000	      0.00000000	      0.25000000	     76.91092811	     -1.97978119	      2.09773477	     86.49512710	      1.50962475	      9.60282388	     -9.26252863	      0.00000000	      0.00000000	     44.78559800	     -8.57811063	     -0.58842290	     71.36490114	      1.24555250	     11.34357808	     -4.09473263	      0.00000000	      0.00000000	    -50.61155024	      0.98968320	      4.35106004	     89.18544324	    -13.87443480	     45.39533127	     24.10040292	     29.50825784	      0.00000000	      0.00000000	     88.61062978	     -8.49114241	     43.53943035	     25.26602710	     31.21844649	      0.00000000	      0.00000000
      0.04000000	    -11.84242270	     -2.32861150	      0.33745234	      0.06977197	      1.10058778	     -0.27770751	      0.00000000	      0.50000000	      0.00000000	      0.25000000	     77.07728494	     -1.97305039	      2.07982328	     86.66761859	      1.51263530	      9.61787778	     -9.18289712	      0.00000000	      0.00000000	     44.83071430	     -8.62800354	     -0.61685418	     71.25090801	      1.24356294	     11.24057747	     -4.03815136	      0.00000000	      0.00000000	    -50.52920946	      0.96962730	      4.34499033	     89.21617090	    -14.41396487	     47.45317770	     24.26433565	     30.69070126	      0.00000000	      0.00000000	     88.66687668	     -9.04970279	     45.51800773	     25.43368253	     32.49380560	      0.00000000	      0.00000000
      0.04500000	    -11.85510125	     -2.32524357	      0.33112692	      0.06974377	      1.10059806	     -0.27770828	      0.00000000	      0.50000000	      0.00000000	      0.25000000	     77.16889038	     -2.00040809	      2.06784999	     86.81199554	      1.51515515	      9.65039789	     -9.13379513	      0.00000000	      0.00000000	     44.78187414	     -8.64609002	     -0.66650965	     71.09006964	      1.24075578	     11.18855972	     -3.99702431	      0.00000000	      0.00000000	    -50.51225216	      0.96051154	      4.36050266	     89.19891218	    -14.05585930	     45.95674842	     23.79996384	     31.61417003	      0.00000000	      0.00000000	     88.63220789	     -8.65613861	     44.01925344	     25.03489738	     33.29049973	      0.00000000	      0.00000000
      0.05000000	    -11.89328976	     -2.35331289	      0.31862213	      0.06967521	      1.10057735	     -0.27769528	      0.00000000	      0.50000000	      0.00000000	      0.25000000	     77.28078850	     -1.98580377	      2.04618336	     86.96260942	      1.51778386	      9.70452992	     -9.10442038	      0.00000000	      0.00000000	     44.76043372	     -8.68551892	     -0.68224784	     70.91805046	      1.23775348	     11.17278263	     -3.90889066	      0.00000000	      0.00000000	    -50.47053909	      0.97684475	      4.38872706	     89.20898283	    -13.98234913	     45.77535361	     23.63028233	     31.84755862	      0.00000000	      0.00000000	     88.63404608	     -8.55222747	     43.79976741	     24.94227615	     33.52112347	      0.00000000	      0.00000000
      0.05500000	    -11.87632447	     -2.36138208	      0.34238633	      0.06964072	      1.10064954	     -0.27764940	      0.00000000	      0.50000000	      0.00000000	      0.25000000	     77.32645406	     -2.03257395	      2.00396331	     87.09583153	      1.52010902	      9.80689878	     -9.04871848	      0.00000000	      0.00000000	     44.68351311	     -8.70462565	     -0.71368722	     70.74212124	      1.23468294	     11.10535000	     -3.88228690	      0.00000000	      0.00000000	    -50.51060248	      0.96887000	      4.38399165	     89.21778102	    -14.41744283	     47.01566314	     23.92205167	     32.86384182	      0.00000000	      0.00000000	     88.70586489	     -8.98261751	     45.31221097	     25.08232892	     34.57472912	      0.00000000	      0.00000000
      0.06000000	    -11.88120267	     -2.33999449	      0.30625285	      0.06963211	      1.10069042	     -0.27759522	      0.00000000	      0.50000000	      0.00000000	      0.25000000	     77.41911043	     -2.03150410	      2.02401261	     87.24044715	      1.52263304	      9.83195269	     -8.96009979	      0.00000000	      0.00000000	     44.60496335	     -8.73391348	     -0.80790724	     70.56185008	      1.23153661	     11.07902521	     -3.81993718	      0.00000000	      0.00000000	    -50.51079607	      0.91152991	      4.41214096	     89.20583552	    -14.07946473	     45.58565963	     23.49522128	     33.32570719	      0.00000000	      0.00000000	     88.66480273	     -8.58745156	     43.86801364	     24.79809066	     34.95917604	      0.00000000	      0.00000000
      0.06500000	    -11.90337125	     -2.38236768	      0.33270309	      0.06955770	      1.10071178	     -0.27767473	      0.00000000	      0.50000000	      0.00000000	      0.25000000	     77.50372759	     -2.06404598	      1.96599151	     87.38158245	      1.52509632	      9.89700731	     -8.98310528	      0.00000000	      0.00000000	     44.57897274	     -8.74228026	     -0.77519677	     70.38118626	      1.22838343	     10.98556372	     -3.83858897	      0.00000000	      0.00000000	    -50.48121959	      0.97916173	      4.40766273	     89.20373886	    -13.80742114	     44.72251962	     23.17652811	     33.94723765	      0.00000000	      0.00000000	     88.66928738	     -8.37968092	     43.11652781	     24.39287738	     35.50922829	      0.00000000	      0.00000000
      0.07000000	    -11.65055371	     -2.28492264	      0.15858878	      0.06973095	      1.10132363	     -0.27741105	      0.00000000	      0.50000000	      0.00000000	      0.25000000	     77.29001296	     -1.93594601	      2.06734947	     87.51700423	      1.52745988	      9.98788660	     -8.96322541	      0.00000000	      0.00000000	     44.10598290	     -8.85559322	     -1.08971873	     70.10635073	      1.22358665	     11.05004320	     -3.51011511	      0.00000000	      0.00000000	    -50.84882264	      0.72995576	      4.54451370	     89.19214538	    -13.86818472	     43.40814607	     23.40907078	     34.62446093	      0.00000000	      0.00000000	     88.58486028	     -8.26582420	     41.80818494	     25.07441131	     36.15596175	      0.00000000	      0.00000000
